<?xml version="1.0" encoding="utf-8"?>
<!-- Generator: Adobe Illustrator 26.0.3, SVG Export Plug-In . SVG Version: 6.00 Build 0)  -->
<svg version="1.1" id="Layer_1" xmlns:v="https://vecta.io/nano"
	 xmlns="http://www.w3.org/2000/svg" xmlns:xlink="http://www.w3.org/1999/xlink" x="0px" y="0px" viewBox="0 0 113.1 113.1"
	 style="enable-background:new 0 0 113.1 113.1;" xml:space="preserve">
<style type="text/css">
	.st0{opacity:0.5;fill:#78CFBD;}
	.st1{fill:#E6E6E6;}
	.st2{fill:#BEC3C8;}
	.st3{fill:#4ABFA7;}
	.st4{fill:#FFFFFF;}
	.st5{fill:#A5DFD3;}
	.st6{fill:none;stroke:#000000;stroke-width:1.9436;stroke-linecap:round;stroke-linejoin:round;stroke-miterlimit:10;}
</style>
<g>
	<path class="st0" d="M8.6,51c2.8-5.9,6.8-11.4,11.3-16.3C29.4,23.9,40.1,15.4,52.7,9c0,0,22.5-11.3,39.6,9.8
		c12.6,15.5,16,40.1,9.5,59.2C97.4,91,87.2,101.7,74.3,106c-15.7,5.3-33.3,2-47.6-5.5C16.2,95,7.9,85,5.5,73.1
		C3.9,65.2,5.4,57.8,8.6,51z"/>
	<g>
		<g>
			<g>
				<path class="st1" d="M92.7,97.1H16.5c-2.9,0-5.2-2.3-5.2-5.2V52.6c0-8.3,6.8-15.1,15.1-15.1h56.4c8.3,0,15.1,6.8,15.1,15.1v39.3
					C98,94.7,95.6,97.1,92.7,97.1z"/>
			</g>
		</g>
		<g>
			<g>
				<path class="st2" d="M98,91.9V49c0-6.4-5.2-11.5-11.5-11.5H55.1c-4.4,12.2-8.3,24.2-8.3,25.6v7.5c0,1.7,0.9,3.2,2.3,4l34.7,20.1
					c2.7,1.6,5.8,2.4,9,2.4l0,0C95.6,97.1,98,94.7,98,91.9z"/>
			</g>
		</g>
		<g>
			<g>
				<g>
					<g>
						<path class="st3" d="M98,49.8c0-6.3-3.4-12.1-8.8-15.2L56.4,15.7c-1.1-0.6-2.5-0.6-3.6,0L20.1,34.6c-5.4,3.1-8.8,9-8.8,15.2
							c0,0,0,0.1,0,0.1c0,0.1,0,0.2,0,0.2c0,1.7,0.9,3.2,2.3,4l39.2,22.6c1.1,0.6,2.5,0.6,3.6,0l39.2-22.6c1.4-0.8,2.3-2.4,2.3-4
							c0-0.1,0-0.2,0-0.2C97.9,49.9,98,49.8,98,49.8z"/>
					</g>
				</g>
			</g>
		</g>
		<g>
			<g>
				<path class="st4" d="M67.8,49.4h-6.3V35.7c0-0.2,0.2-0.3,0.3-0.3h5.6c0.2,0,0.3,0.2,0.3,0.3V49.4z"/>
			</g>
		</g>
		<g>
			<g>
				<path class="st4" d="M54.2,30.6L37.3,47.5c-0.4,0.4-0.1,0.9,0.4,0.9h33.9c0.5,0,0.7-0.6,0.4-0.9L55,30.6
					C54.8,30.4,54.4,30.4,54.2,30.6z"/>
			</g>
		</g>
		<g>
			<g>
				<rect x="41.5" y="47" class="st4" width="26.3" height="16.8"/>
			</g>
		</g>
		<g>
			<g>
				<g>
					<g>
						<path class="st5" d="M59,63h-8.2v-6.4c0-2.3,1.8-4.1,4.1-4.1l0,0c2.3,0,4.1,1.8,4.1,4.1V63z"/>
					</g>
				</g>
			</g>
		</g>
		<g>
			<g>
				<g>
					<g>
						<path class="st6" d="M98.3,49.1c0-6.3-3.4-12.1-8.8-15.2L56.7,15c-1.1-0.6-2.5-0.6-3.6,0L20.4,33.9c-5.4,3.1-8.8,9-8.8,15.2
							c0,0,0,0.1,0,0.1c0,0.1,0,0.2,0,0.2c0,1.7,0.9,3.2,2.3,4l39.2,22.6c1.1,0.6,2.5,0.6,3.6,0l39.2-22.6c1.4-0.8,2.3-2.4,2.3-4
							c0-0.1,0-0.2,0-0.2C98.3,49.2,98.3,49.1,98.3,49.1z"/>
					</g>
				</g>
			</g>
		</g>
		<path class="st6" d="M72.3,46.8L55.3,29.9c-0.2-0.2-0.6-0.2-0.8,0L37.6,46.8c-0.4,0.4-0.1,0.9,0.4,0.9h3.8v15.3h26.3V47.8h3.8
			C72.4,47.8,72.6,47.2,72.3,46.8z"/>
		<g>
			<g>
				<g>
					<g>
						<path class="st6" d="M59,63.1h-8.2v-6.4c0-2.3,1.8-4.1,4.1-4.1l0,0c2.3,0,4.1,1.8,4.1,4.1V63.1z"/>
					</g>
				</g>
			</g>
		</g>
		<path class="st6" d="M97.9,51.1c0,0,0,0.1-0.1,0.1c-0.1,0.3-0.2,0.5-0.4,0.7c-0.1,0.1-0.2,0.2-0.3,0.3c-0.1,0.2-0.2,0.3-0.4,0.5
			c-0.3,0.3-0.6,0.5-0.9,0.7L56.7,76.1c-0.6,0.3-1.2,0.5-1.8,0.5c-0.6,0-1.2-0.2-1.8-0.5L13.9,53.5c-0.3-0.2-0.6-0.4-0.9-0.7
			c-0.1-0.1-0.3-0.3-0.4-0.5c-0.1-0.1-0.2-0.2-0.3-0.3c-0.2-0.2-0.3-0.5-0.4-0.7c0,0,0-0.1-0.1-0.1c-0.1-0.3-0.2-0.6-0.3-0.9
			c-0.1,0.6-0.1,1.1-0.1,1.7v39.3c0,2.9,2.3,5.2,5.2,5.2h76.3c2.9,0,5.2-2.3,5.2-5.2V51.9c0-0.6,0-1.1-0.1-1.7
			C98.1,50.5,98,50.8,97.9,51.1z"/>
		<g>
			<g>
				<g>
					<path class="st6" d="M98.3,49.5v-0.4c0,0,0,0.1,0,0.1C98.3,49.3,98.3,49.4,98.3,49.5z"/>
				</g>
				<g>
					<path class="st6" d="M95.9,53.5L56.7,76.1c-1,0.6-2.3,0.6-3.4,0.1L84.1,94c2.7,1.6,5.8,2.4,9,2.4c2.9,0,5.2-2.3,5.2-5.2V49.5
						C98.3,51.1,97.4,52.7,95.9,53.5z"/>
				</g>
				<g>
					<path class="st6" d="M97.7,44.8c0.4,1.4,0.5,2.8,0.5,4.3v-0.8C98.3,47.1,98.1,45.9,97.7,44.8z"/>
				</g>
			</g>
		</g>
		<path class="st6" d="M68.1,42.6V35c0-0.2-0.2-0.3-0.3-0.3h-5.6c-0.2,0-0.3,0.2-0.3,0.3v1.3L68.1,42.6z"/>
	</g>
</g>
</svg>
