<?xml version="1.0" encoding="utf-8"?>
<!-- Generator: Adobe Illustrator 26.0.3, SVG Export Plug-In . SVG Version: 6.00 Build 0)  -->
<svg version="1.1" id="Layer_1" xmlns:v="https://vecta.io/nano"
	 xmlns="http://www.w3.org/2000/svg" xmlns:xlink="http://www.w3.org/1999/xlink" x="0px" y="0px" viewBox="0 0 113.1 113.1"
	 style="enable-background:new 0 0 113.1 113.1;" xml:space="preserve">
<style type="text/css">
	.st0{opacity:0.5;fill:#78CFBD;}
	.st1{fill:#4ABFA7;}
	.st2{fill:#E6E6E6;}
	.st3{fill:#BEC3C8;}
	.st4{fill:#A5DFD3;}
	.st5{fill:#78CFBD;}
	.st6{fill:#FFFFFF;}
	.st7{fill:none;stroke:#000000;stroke-width:1.8056;stroke-miterlimit:10;}
	.st8{fill:none;stroke:#000000;stroke-width:1.9436;stroke-linecap:round;stroke-linejoin:round;stroke-miterlimit:10;}
</style>
<g>
	<path class="st0" d="M3.5,63.2c-4.1-20,2.7-40.6,21.3-50.4c10.7-5.6,22.8-7.5,34.7-4.8c29.2,6.4,68.9,53.1,40.9,80.8
		c-23.1,22.9-64.3,24.6-85.7-1.3C9.2,80.7,5.4,72.2,3.5,63.2z"/>
	<g>
		<g>
			<g>
				<g>
					<g>
						<rect x="47.5" y="18.8" class="st1" width="14.6" height="13.3"/>
					</g>
				</g>
			</g>
		</g>
		<g>
			<g>
				<rect x="16.2" y="40.8" class="st2" width="77.2" height="54.9"/>
			</g>
		</g>
		<g>
			<g>
				<path class="st1" d="M96.3,52.4H13.2c-1.1,0-2-1-1.7-2.1l4.7-22.9c0.2-0.8,0.9-1.4,1.7-1.4h73.7c0.8,0,1.6,0.6,1.7,1.4l4.7,22.9
					C98.3,51.3,97.4,52.4,96.3,52.4z"/>
			</g>
		</g>
		<g>
			<g>
				<polygon class="st2" points="54.8,32.2 33.5,44.4 33.5,95.7 76,95.7 76,44.4 				"/>
			</g>
		</g>
		<g>
			<g>
				<path class="st3" d="M33.5,52.5l20.3-11.7c0.6-0.3,1.3-0.3,1.9,0L76,52.5v-6.3L56.1,34.8c-0.8-0.5-1.9-0.5-2.7,0L33.5,46.3V52.5
					z"/>
			</g>
		</g>
		<g>
			<g>
				<path class="st4" d="M80.1,49.5c-0.5,0-0.9-0.1-1.4-0.4l-23-13.3c-0.6-0.3-1.3-0.3-1.9,0l-23,13.3c-1.4,0.8-3.3,0.2-3.9-1.4
					c-0.5-1.3,0.1-2.7,1.3-3.4l25.2-14.5c0.8-0.5,1.9-0.5,2.7,0l25.2,14.5c1.2,0.7,1.9,2.2,1.3,3.5C82.1,48.9,81.1,49.5,80.1,49.5z"
					/>
			</g>
		</g>
		<g>
			<g>
				<g>
					<g>
						<path class="st1" d="M63.6,20.9H46.2c-0.5,0-1-0.4-1-1v-2.1c0-0.5,0.4-1,1-1h17.4c0.5,0,1,0.4,1,1v2.1
							C64.5,20.4,64.1,20.9,63.6,20.9z"/>
					</g>
				</g>
			</g>
		</g>
		<g>
			<g>
				<g>
					<g>
						<path class="st5" d="M46.7,84.8c1.2,0.9,2.3,1.8,3.3,2.7c2.7,2.4,6.8,2.4,9.5,0c1-0.9,2.1-1.8,3.3-2.7
							c1.6-1.2,3.1-2.2,4.5-3.1c2-1.2,3.2-3.3,3.2-5.6c0-5.9,0-17,0-21.1c0-0.9-0.6-1.7-1.5-1.9l-12.6-3.4c-1.2-0.3-2.5-0.3-3.7,0
							l-12.6,3.4c-0.9,0.2-1.5,1-1.5,1.9v21.1c0,2.3,1.2,4.4,3.2,5.6C43.6,82.6,45.1,83.6,46.7,84.8z"/>
					</g>
				</g>
			</g>
		</g>
		<g>
			<g>
				<g>
					<path class="st6" d="M50.9,76.1l-4.4-4.4c-1.1-1.1-1.4-2.9-0.5-4.2c1.2-1.6,3.4-1.8,4.8-0.4l1.5,1.5l6.3-6.3
						c1.1-1.1,2.9-1.4,4.2-0.5c1.6,1.2,1.8,3.4,0.4,4.8l-9.5,9.5C52.9,76.9,51.7,76.9,50.9,76.1z"/>
				</g>
			</g>
		</g>
		<g>
			<g>
				<g>
					<g>
						<path class="st7" d="M80.1,49.5c-0.5,0-0.9-0.1-1.4-0.4l-23-13.3c-0.6-0.3-1.3-0.3-1.9,0l-23,13.3c-1.4,0.8-3.3,0.2-3.9-1.4
							c-0.5-1.3,0.1-2.7,1.3-3.4l25.2-14.5c0.8-0.5,1.9-0.5,2.7,0l25.2,14.5c1.2,0.7,1.9,2.2,1.3,3.5C82.1,48.9,81.1,49.5,80.1,49.5
							z"/>
					</g>
				</g>
			</g>
		</g>
		<g>
			<g>
				<g>
					<g>
						<path class="st8" d="M46.7,84.8c1.2,0.9,2.3,1.8,3.3,2.7c2.7,2.4,6.8,2.4,9.5,0c1-0.9,2.1-1.8,3.3-2.7
							c1.6-1.2,3.1-2.2,4.5-3.1c2-1.2,3.2-3.3,3.2-5.6c0-5.9,0-17,0-21.1c0-0.9-0.6-1.7-1.5-1.9l-12.6-3.4c-1.2-0.3-2.5-0.3-3.7,0
							l-12.6,3.4c-0.9,0.2-1.5,1-1.5,1.9v21.1c0,2.3,1.2,4.4,3.2,5.6C43.6,82.6,45.1,83.6,46.7,84.8z"/>
					</g>
				</g>
			</g>
		</g>
		<g>
			<g>
				<g>
					<g>
						<path class="st8" d="M50.9,76.1l-4.4-4.4c-1.1-1.1-1.4-2.9-0.5-4.2c1.2-1.6,3.4-1.8,4.8-0.4l1.5,1.5l6.3-6.3
							c1.1-1.1,2.9-1.4,4.2-0.5c1.6,1.2,1.8,3.4,0.4,4.8l-9.5,9.5C52.9,76.9,51.7,76.9,50.9,76.1z"/>
					</g>
				</g>
			</g>
		</g>
		<path class="st8" d="M76,52.4v-4.8L55.7,35.9c-0.6-0.3-1.3-0.3-1.9,0L33.5,47.6v4.8H16.2V95h77.2V52.4H76z"/>
		<path class="st8" d="M93.3,27.4c-0.2-0.8-0.9-1.4-1.7-1.4H62.1v-5.1h1.5c0.5,0,1-0.4,1-1v-2.1c0-0.5-0.4-1-1-1H46.2
			c-0.5,0-1,0.4-1,1v2.1c0,0.5,0.4,1,1,1h1.3v5.1H17.9c-0.8,0-1.6,0.6-1.7,1.4l-4.7,22.9c-0.2,1.1,0.6,2.1,1.7,2.1h20.3v-4.8
			l-2.7,1.6c-1.4,0.8-3.3,0.2-3.9-1.4c-0.5-1.3,0.1-2.7,1.3-3.4l25.2-14.5c0.8-0.5,1.9-0.5,2.7,0l25.2,14.5c1.2,0.7,1.9,2.2,1.3,3.5
			c-0.5,1-1.5,1.6-2.5,1.6c-0.5,0-0.9-0.1-1.4-0.4L76,47.6v4.8h20.3c1.1,0,2-1,1.7-2.1L93.3,27.4z"/>
	</g>
</g>
</svg>
