<?xml version="1.0" encoding="utf-8"?>
<!-- Generator: Adobe Illustrator 26.0.3, SVG Export Plug-In . SVG Version: 6.00 Build 0)  -->
<svg version="1.1" id="Layer_1" xmlns:v="https://vecta.io/nano"
	 xmlns="http://www.w3.org/2000/svg" xmlns:xlink="http://www.w3.org/1999/xlink" x="0px" y="0px" viewBox="0 0 113.1 113.1"
	 style="enable-background:new 0 0 113.1 113.1;" xml:space="preserve">
<style type="text/css">
	.st0{opacity:0.5;fill:#78CFBD;}
	.st1{fill:#E6E6E6;}
	.st2{fill:#BEC3C8;}
	.st3{fill:#4ABFA7;}
	.st4{fill:#78CFBD;}
	.st5{fill:#FFFFFF;}
	.st6{fill:#A5DFD3;}
	.st7{fill:none;stroke:#000000;stroke-width:1.9436;stroke-linecap:round;stroke-linejoin:round;stroke-miterlimit:10;}
	.st8{fill:none;stroke:#000000;stroke-width:1.9435;stroke-linecap:round;stroke-linejoin:round;stroke-miterlimit:10;}
</style>
<g>
	<path class="st0" d="M5.1,54.8c0.2-2.9,0.6-5.7,1.2-8.4c1.6-7.2,4.8-14,9.3-19.8C32.1,5.4,64,1.4,86.3,15.8
		c8.7,5.6,15,14,18.9,23.5c3.5,8.5,3.8,19.7,1.4,28.5c-7.3,27.9-43.8,35.3-68.5,33c-7.5-0.7-14.9-2.8-20.5-8
		C7.4,83.4,4.2,68.1,5.1,54.8z"/>
	<g>
		<g>
			<g>
				<path class="st1" d="M90,87.4H19.7c-3.2,0-5.7-2.6-5.7-5.7V29.3h81.7v52.3C95.7,84.8,93.1,87.4,90,87.4z"/>
			</g>
		</g>
		<g>
			<g>
				<rect x="14" y="29.3" class="st2" width="81.7" height="3.9"/>
			</g>
		</g>
		<g>
			<g>
				<path class="st3" d="M59.4,22.7c0,2.5-2.1,4.6-4.6,4.6c-2.5,0-4.6-2.1-4.6-4.6c0-2.5,2.1-4.6,4.6-4.6
					C57.4,18.1,59.4,20.1,59.4,22.7z"/>
			</g>
		</g>
		<g>
			<g>
				<path class="st4" d="M96.6,30.2H13.1c-0.9,0-1.6-0.7-1.6-1.6v-4c0-0.9,0.7-1.6,1.6-1.6h83.4c0.9,0,1.6,0.7,1.6,1.6v4
					C98.2,29.5,97.5,30.2,96.6,30.2z"/>
			</g>
		</g>
		<g>
			<g>
				<path class="st4" d="M48.5,99.5c0,3.5,2.9,6.4,6.4,6.3c3.4,0,6.2-2.9,6.2-6.3c0-2.4-1.3-4.5-3.3-5.6c-0.5-0.2-0.7-0.7-0.7-1.2
					v-5.1h-4.6v5.1c0,0.5-0.3,1-0.7,1.2C49.8,95,48.5,97.1,48.5,99.5z M54.9,101.2c-0.9,0-1.7-0.8-1.7-1.7c0-0.9,0.8-1.7,1.7-1.7
					c0.9,0,1.7,0.8,1.7,1.7C56.5,100.4,55.8,101.2,54.9,101.2z"/>
			</g>
		</g>
		<g>
			<g>
				<path class="st5" d="M72,46.7c-6.9,0-12.5,5.6-12.5,12.5c0,6.9,5.6,12.5,12.5,12.5s12.5-5.6,12.5-12.5H72V46.7z"/>
			</g>
		</g>
		<g>
			<g>
				<path class="st3" d="M72,45.2v14h14c0.8,0,1.4-0.7,1.3-1.4c-0.7-7.4-6.5-13.2-13.9-13.9C72.6,43.8,72,44.4,72,45.2z"/>
			</g>
		</g>
		<g>
			<g>
				<g>
					<g>
						<path class="st5" d="M50,59.9h-5.4V48.1c0-0.2,0.1-0.3,0.3-0.3h4.8c0.2,0,0.3,0.1,0.3,0.3V59.9z"/>
					</g>
				</g>
			</g>
		</g>
		<g>
			<g>
				<path class="st5" d="M38.4,43.7L23.8,58.3c-0.3,0.3-0.1,0.8,0.3,0.8h29.2c0.4,0,0.6-0.5,0.3-0.8L39.1,43.7
					C38.9,43.5,38.6,43.5,38.4,43.7z"/>
			</g>
		</g>
		<g>
			<g>
				<rect x="27.4" y="57.9" class="st5" width="22.6" height="14.5"/>
			</g>
		</g>
		<g>
			<g>
				<path class="st6" d="M42.3,72.4h-7.1v-5.5c0-2,1.6-3.5,3.5-3.5l0,0c2,0,3.5,1.6,3.5,3.5V72.4z"/>
			</g>
		</g>
		<g>
			<g>
				<g>
					<g>
						<path class="st7" d="M90,87.6H19.7c-3.2,0-5.7-2.6-5.7-5.7V29.5h81.7v52.3C95.7,85.1,93.1,87.6,90,87.6z"/>
					</g>
				</g>
			</g>
		</g>
		<g>
			<g>
				<g>
					<g>
						<path class="st7" d="M96.6,29.5H13.1c-0.9,0-1.6-0.7-1.6-1.6v-4c0-0.9,0.7-1.6,1.6-1.6h83.4c0.9,0,1.6,0.7,1.6,1.6v4
							C98.2,28.8,97.5,29.5,96.6,29.5z"/>
					</g>
				</g>
			</g>
		</g>
		<g>
			<g>
				<g>
					<g>
						<g>
							<path class="st7" d="M48.5,99.5c0,3.5,2.9,6.4,6.4,6.3c3.4,0,6.2-2.9,6.2-6.3c0-2.4-1.3-4.5-3.3-5.6
								c-0.5-0.2-0.7-0.7-0.7-1.2v-5.1h-4.6v5.1c0,0.5-0.3,1-0.7,1.2C49.8,95,48.5,97.1,48.5,99.5z M54.9,101.2
								c-0.9,0-1.7-0.8-1.7-1.7c0-0.9,0.8-1.7,1.7-1.7c0.9,0,1.7,0.8,1.7,1.7C56.5,100.4,55.8,101.2,54.9,101.2z"/>
						</g>
					</g>
				</g>
			</g>
		</g>
		<g>
			<g>
				<g>
					<path class="st7" d="M72,47c-6.9,0-12.5,5.6-12.5,12.5C59.4,66.4,65,72,72,72s12.5-5.6,12.5-12.5H72V47z"/>
				</g>
			</g>
		</g>
		<g>
			<g>
				<g>
					<g>
						<path class="st7" d="M72,45.4v14h14c0.8,0,1.4-0.7,1.3-1.4c-0.7-7.4-6.5-13.2-13.9-13.9C72.6,44.1,72,44.7,72,45.4z"/>
					</g>
				</g>
			</g>
		</g>
		<path class="st8" d="M53.7,58.6L39.1,44c-0.2-0.2-0.5-0.2-0.7,0L23.8,58.6c-0.3,0.3-0.1,0.8,0.3,0.8h3.3v13.2H50V59.4h3.3
			C53.7,59.4,54,58.9,53.7,58.6z"/>
		<g>
			<g>
				<g>
					<g>
						<path class="st8" d="M42.3,72.6h-7.1v-5.5c0-2,1.6-3.5,3.5-3.5l0,0c2,0,3.5,1.6,3.5,3.5V72.6z"/>
					</g>
				</g>
			</g>
		</g>
		<path class="st7" d="M59.4,22.3c-0.3-2.3-2.2-4.1-4.5-4.1c-2.4,0-4.3,1.8-4.5,4.1H59.4z"/>
		<path class="st8" d="M50,54.9v-6.5c0-0.2-0.1-0.3-0.3-0.3h-4.8c-0.2,0-0.3,0.1-0.3,0.3v1L50,54.9z"/>
	</g>
</g>
</svg>
